<svg xmlns="http://www.w3.org/2000/svg" xmlns:xlink="http://www.w3.org/1999/xlink" width="200" height="200" viewBox="0 0 200 200">
  <defs>
    <clipPath id="clip-favicon">
      <rect width="200" height="200"/>
    </clipPath>
  </defs>
  <g id="favicon" clip-path="url(#clip-favicon)">
    <path id="Icon_awesome-hamburger" data-name="Icon awesome-hamburger" d="M115.354,57.938H11.933a11.933,11.933,0,1,0,0,23.866H115.354a11.933,11.933,0,1,0,0-23.866Zm3.978,31.822H7.955a3.978,3.978,0,0,0-3.978,3.978v3.978a15.911,15.911,0,0,0,15.911,15.911H107.4a15.911,15.911,0,0,0,15.911-15.911V93.738A3.978,3.978,0,0,0,119.332,89.76ZM14.578,49.983h98.13c8.594,0,13.579-10.914,8.657-18.864C111.376,14.979,89.387,2.275,63.644,2.25,37.9,2.275,15.911,14.979,5.922,31.116.994,39.066,5.984,49.983,14.578,49.983ZM95.465,22.139a3.978,3.978,0,1,1-3.978,3.978A3.978,3.978,0,0,1,95.465,22.139ZM63.644,14.183a3.978,3.978,0,1,1-3.978,3.978A3.978,3.978,0,0,1,63.644,14.183ZM31.822,22.139a3.978,3.978,0,1,1-3.978,3.978A3.978,3.978,0,0,1,31.822,22.139Z" transform="translate(36 35.062)" fill="#6c5ce7"/>
    <g id="Ellipse_1" data-name="Ellipse 1" transform="translate(5 5)" fill="none" stroke="#6c5ce7" stroke-width="11">
      <circle cx="95" cy="95" r="95" stroke="none"/>
      <circle cx="95" cy="95" r="89.5" fill="none"/>
    </g>
  </g>
</svg>
