<svg xmlns="http://www.w3.org/2000/svg" xmlns:xlink="http://www.w3.org/1999/xlink" width="480" height="270" viewBox="0 0 480 270">
  <defs>
    <linearGradient id="linear-gradient" x1="0.434" y1="0.268" x2="0.507" y2="0.761" gradientUnits="objectBoundingBox">
      <stop offset="0" stop-color="#fff" stop-opacity="0.141"/>
      <stop offset="1" stop-color="#fff" stop-opacity="0"/>
    </linearGradient>
    <clipPath id="clip-placeholder">
      <rect width="480" height="270"/>
    </clipPath>
  </defs>
  <g id="placeholder" clip-path="url(#clip-placeholder)">
    <rect width="480" height="270" fill="#6c5ce7"/>
    <path id="Pfad_1" data-name="Pfad 1" d="M-28.828,199.091C311.1,145.44,352.739,14.914,497.278,16.115S641.416,231.522,641.416,231.522V369.855H-28.828Z" transform="translate(0 20)" fill="url(#linear-gradient)"/>
    <path id="Icon_awesome-hamburger" data-name="Icon awesome-hamburger" d="M85.688,43.616H8.864a8.864,8.864,0,1,0,0,17.728H85.688a8.864,8.864,0,1,0,0-17.728Zm2.955,23.638H5.909a2.955,2.955,0,0,0-2.955,2.955v2.955A11.819,11.819,0,0,0,14.774,84.983h65A11.819,11.819,0,0,0,91.6,73.164V70.209A2.955,2.955,0,0,0,88.642,67.254ZM10.829,37.707H83.723c6.384,0,10.087-8.107,6.43-14.013C82.733,11.705,66.4,2.268,47.276,2.25,28.155,2.268,11.819,11.705,4.4,23.692.739,29.6,4.445,37.707,10.829,37.707ZM70.914,17.024a2.955,2.955,0,1,1-2.955,2.955A2.955,2.955,0,0,1,70.914,17.024ZM47.276,11.114a2.955,2.955,0,1,1-2.955,2.955A2.955,2.955,0,0,1,47.276,11.114ZM23.638,17.024a2.955,2.955,0,1,1-2.955,2.955A2.955,2.955,0,0,1,23.638,17.024Z" transform="translate(192.724 91.384)" fill="#fff"/>
  </g>
</svg>
